<?xml version="1.0" standalone="no"?>
<!DOCTYPE svg PUBLIC "-//W3C//DTD SVG 20010904//EN"
 "http://www.w3.org/TR/2001/REC-SVG-20010904/DTD/svg10.dtd">
<svg version="1.0" xmlns="http://www.w3.org/2000/svg"
 width="512.000000pt" height="512.000000pt" viewBox="0 0 512.000000 512.000000"
 preserveAspectRatio="xMidYMid meet">

<g transform="translate(0.000000,512.000000) scale(0.100000,-0.100000)"
fill="#000000" stroke="none">
<path d="M996 4409 l-26 -20 0 -190 0 -189 -189 0 -190 0 -20 -26 c-19 -25
-21 -40 -21 -205 l0 -179 -179 0 c-165 0 -180 -2 -205 -21 l-26 -20 0 -190 0
-190 68 3 67 3 3 138 3 137 1864 0 1865 0 0 -1242 c0 -705 -4 -1238 -9 -1233
-4 6 -306 406 -669 891 -417 557 -668 883 -681 887 -12 3 -30 3 -42 0 -13 -4
-175 -211 -431 -552 -225 -300 -413 -546 -418 -546 -5 0 -98 106 -207 235
-186 221 -201 235 -235 238 -43 4 13 66 -623 -691 l-410 -487 -5 973 -5 972
-67 3 -68 3 0 -1090 0 -1090 26 -20 27 -21 1952 0 1952 0 27 21 26 20 0 190 0
189 189 0 190 0 20 26 c19 25 21 40 21 205 l0 179 179 0 c165 0 180 2 205 21
l26 20 0 1414 0 1414 -26 20 c-25 20 -39 21 -240 21 l-214 0 0 -70 0 -70 170
0 170 0 0 -1315 0 -1315 -135 0 -135 0 0 1149 c0 1147 0 1148 -21 1175 l-20
26 -1710 0 -1709 0 0 140 0 140 1555 0 1555 0 0 70 0 70 -1599 0 -1598 0 -27
-21z m3434 -1849 l0 -1310 -140 0 -140 0 0 1154 0 1155 -26 20 -27 21 -1703 0
-1704 0 0 135 0 135 1870 0 1870 0 0 -1310z m-1150 -842 c355 -473 649 -867
653 -874 7 -12 -109 -14 -736 -14 l-743 0 -297 352 c-163 194 -297 357 -298
362 -2 9 762 1035 771 1035 3 0 295 -387 650 -861z m-1462 -348 l451 -535
-474 -3 c-260 -1 -690 -1 -954 0 l-480 3 477 567 477 567 26 -32 c15 -18 229
-273 477 -567z"/>
<path d="M1693 3166 c-92 -30 -167 -99 -211 -195 -34 -75 -35 -180 -3 -264 29
-73 102 -149 178 -185 49 -22 72 -27 143 -26 72 0 94 4 142 27 69 34 131 94
166 162 37 72 43 197 12 278 -27 71 -103 153 -175 187 -62 29 -188 37 -252 16z
m181 -136 c49 -18 105 -80 121 -133 62 -210 -202 -360 -349 -197 -93 103 -58
270 69 326 35 16 123 18 159 4z"/>
</g>
</svg>
