<!-- icon666.com - MILLIONS vector ICONS FREE --><svg version="1.1" id="Capa_1" xmlns="http://www.w3.org/2000/svg" xmlns:xlink="http://www.w3.org/1999/xlink" x="0px" y="0px" viewBox="0 0 483.84 483.84" style="enable-background:new 0 0 483.84 483.84;" xml:space="preserve"><g><g><path d="M409.921,0C409.92,0,409.92,0,409.921,0H74.133C33.25,0,0.106,33.143,0.106,74.026c0,0.071,0,0.142,0,0.214v335.573 c0,40.801,33.013,73.909,73.813,74.027h336c40.8-0.118,73.814-33.226,73.813-74.027V74.24C483.851,33.356,450.804,0.118,409.921,0 z M313.92,135.253h-13.653L206.4,348.587h5.12v21.333h-41.387v-21.333h13.653l93.867-213.333h-4.907V113.92h41.173L313.92,135.253 z"></path></g></g></svg>