<?xml version="1.0" standalone="no"?>
<!DOCTYPE svg PUBLIC "-//W3C//DTD SVG 20010904//EN"
 "http://www.w3.org/TR/2001/REC-SVG-20010904/DTD/svg10.dtd">
<svg version="1.0" xmlns="http://www.w3.org/2000/svg"
 width="512.000000pt" height="512.000000pt" viewBox="0 0 512.000000 512.000000"
 preserveAspectRatio="xMidYMid meet">

<g transform="translate(0.000000,512.000000) scale(0.100000,-0.100000)"
fill="#000000" stroke="none">
<path d="M51 5106 c-47 -26 -50 -46 -51 -284 0 -243 5 -267 55 -290 40 -18
457 -17 494 2 47 25 51 49 51 286 0 237 -4 261 -51 286 -39 20 -462 20 -498 0z
m349 -286 l0 -100 -100 0 -100 0 0 100 0 100 100 0 100 0 0 -100z"/>
<path d="M4571 5106 c-47 -26 -50 -46 -51 -284 0 -243 5 -267 55 -290 40 -18
457 -17 494 2 47 25 51 49 51 286 0 237 -4 261 -51 286 -39 20 -462 20 -498 0z
m349 -286 l0 -100 -100 0 -100 0 0 100 0 100 100 0 100 0 0 -100z"/>
<path d="M911 4906 c-47 -26 -63 -84 -37 -135 22 -42 55 -51 186 -51 131 0
164 9 186 51 27 52 8 115 -41 137 -37 17 -263 15 -294 -2z"/>
<path d="M1511 4906 c-47 -26 -63 -84 -37 -135 22 -42 55 -51 186 -51 131 0
164 9 186 51 27 52 8 115 -41 137 -37 17 -263 15 -294 -2z"/>
<path d="M2111 4906 c-47 -26 -63 -84 -37 -135 22 -42 55 -51 186 -51 131 0
164 9 186 51 27 52 8 115 -41 137 -37 17 -263 15 -294 -2z"/>
<path d="M2711 4906 c-47 -26 -63 -84 -37 -135 22 -42 55 -51 186 -51 131 0
164 9 186 51 27 52 8 115 -41 137 -37 17 -263 15 -294 -2z"/>
<path d="M3311 4906 c-47 -26 -63 -84 -37 -135 22 -42 55 -51 186 -51 131 0
164 9 186 51 27 52 8 115 -41 137 -37 17 -263 15 -294 -2z"/>
<path d="M3911 4906 c-47 -26 -63 -84 -37 -135 22 -42 55 -51 186 -51 131 0
164 9 186 51 27 52 8 115 -41 137 -37 17 -263 15 -294 -2z"/>
<path d="M751 4406 c-50 -28 -50 -32 -51 -483 0 -307 3 -429 12 -448 23 -50
48 -55 288 -55 240 0 265 5 288 55 8 17 12 83 12 185 l0 160 100 0 100 0 0
-500 0 -500 -160 0 c-176 0 -206 -7 -228 -55 -8 -18 -12 -97 -12 -246 0 -239
5 -264 55 -287 37 -17 1253 -17 1290 0 50 23 55 48 55 288 0 240 -5 265 -55
288 -17 8 -83 12 -185 12 l-160 0 0 500 0 500 100 0 100 0 0 -160 c0 -102 4
-168 12 -185 23 -50 48 -55 288 -55 240 0 265 5 288 55 9 19 12 141 12 445 0
450 -1 460 -51 486 -37 19 -953 21 -994 2 -59 -27 -73 -112 -26 -159 l29 -29
421 0 421 0 0 -300 0 -300 -100 0 -100 0 0 171 0 171 -29 29 -29 29 -242 0
-242 0 -29 -29 -29 -29 0 -642 0 -642 29 -29 29 -29 171 0 171 0 0 -100 0
-100 -500 0 -500 0 0 100 0 100 171 0 171 0 29 29 29 29 0 642 0 642 -29 29
-29 29 -242 0 -242 0 -29 -29 -29 -29 0 -171 0 -171 -100 0 -100 0 0 300 0
300 71 0 c65 0 73 2 100 29 47 47 33 132 -26 159 -37 17 -263 15 -294 -2z"/>
<path d="M1401 4406 c-89 -49 -53 -186 49 -186 33 0 48 6 71 29 80 81 -20 212
-120 157z"/>
<path d="M3251 4406 c-67 -37 -65 -143 4 -174 19 -9 166 -12 555 -12 389 0
536 3 555 12 29 13 55 55 55 88 0 33 -26 75 -55 88 -40 18 -1081 16 -1114 -2z"/>
<path d="M251 4246 c-42 -23 -50 -52 -51 -183 0 -135 9 -167 51 -189 52 -27
115 -8 137 41 16 35 16 255 0 290 -22 48 -88 68 -137 41z"/>
<path d="M4771 4246 c-42 -23 -50 -52 -51 -183 0 -135 9 -167 51 -189 52 -27
115 -8 137 41 7 15 12 74 12 145 0 71 -5 130 -12 145 -22 48 -88 68 -137 41z"/>
<path d="M3247 3969 c-22 -13 -47 -61 -47 -93 0 -14 13 -40 29 -58 l29 -33
552 0 552 0 29 33 c16 18 29 44 29 58 0 33 -25 81 -49 94 -27 14 -1099 13
-1124 -1z"/>
<path d="M251 3646 c-42 -23 -50 -52 -51 -183 0 -135 9 -167 51 -189 52 -27
115 -8 137 41 16 35 16 255 0 290 -22 48 -88 68 -137 41z"/>
<path d="M4771 3646 c-42 -23 -50 -52 -51 -183 0 -135 9 -167 51 -189 52 -27
115 -8 137 41 7 15 12 74 12 145 0 71 -5 130 -12 145 -22 48 -88 68 -137 41z"/>
<path d="M3229 3511 c-54 -55 -29 -139 49 -161 49 -13 1014 -14 1063 0 47 13
69 39 76 89 5 35 2 44 -25 71 l-30 30 -552 0 -552 0 -29 -29z"/>
<path d="M3264 3100 c-30 -12 -64 -58 -64 -87 0 -32 26 -80 49 -93 27 -14
1095 -14 1122 0 24 13 49 61 49 94 0 14 -13 40 -29 58 l-29 33 -539 2 c-296 1
-548 -2 -559 -7z"/>
<path d="M251 3046 c-42 -23 -50 -52 -51 -183 0 -135 9 -167 51 -189 52 -27
115 -8 137 41 16 35 16 255 0 290 -22 48 -88 68 -137 41z"/>
<path d="M4771 3046 c-42 -23 -50 -52 -51 -183 0 -135 9 -167 51 -189 52 -27
115 -8 137 41 7 15 12 74 12 145 0 71 -5 130 -12 145 -22 48 -88 68 -137 41z"/>
<path d="M3251 2656 c-67 -37 -65 -143 4 -174 37 -17 1073 -17 1110 0 29 13
55 55 55 88 0 33 -26 75 -55 88 -40 18 -1081 16 -1114 -2z"/>
<path d="M251 2446 c-42 -23 -50 -52 -51 -183 0 -135 9 -167 51 -189 52 -27
115 -8 137 41 16 35 16 255 0 290 -22 48 -88 68 -137 41z"/>
<path d="M4771 2446 c-42 -23 -50 -52 -51 -183 0 -135 9 -167 51 -189 52 -27
115 -8 137 41 7 15 12 74 12 145 0 71 -5 130 -12 145 -22 48 -88 68 -137 41z"/>
<path d="M3247 2219 c-22 -13 -47 -61 -47 -93 0 -14 13 -40 29 -58 l29 -33
552 0 552 0 29 33 c16 18 29 44 29 58 0 33 -25 81 -49 94 -27 14 -1099 13
-1124 -1z"/>
<path d="M251 1846 c-42 -23 -50 -52 -51 -183 0 -135 9 -167 51 -189 52 -27
115 -8 137 41 16 35 16 255 0 290 -22 48 -88 68 -137 41z"/>
<path d="M4771 1846 c-42 -23 -50 -52 -51 -183 0 -135 9 -167 51 -189 52 -27
115 -8 137 41 7 15 12 74 12 145 0 71 -5 130 -12 145 -22 48 -88 68 -137 41z"/>
<path d="M773 1789 c-73 -21 -97 -107 -44 -160 l29 -29 1801 0 1800 0 26 23
c60 51 36 145 -43 167 -48 13 -3523 12 -3569 -1z"/>
<path d="M764 1350 c-30 -12 -64 -58 -64 -87 0 -32 26 -80 49 -93 27 -14 3595
-14 3622 0 24 13 49 61 49 94 0 14 -13 40 -29 58 l-29 33 -1789 2 c-983 1
-1798 -2 -1809 -7z"/>
<path d="M251 1246 c-42 -23 -50 -52 -51 -183 0 -135 9 -167 51 -189 52 -27
115 -8 137 41 16 35 16 255 0 290 -22 48 -88 68 -137 41z"/>
<path d="M4771 1246 c-42 -23 -50 -52 -51 -183 0 -135 9 -167 51 -189 52 -27
115 -8 137 41 7 15 12 74 12 145 0 71 -5 130 -12 145 -22 48 -88 68 -137 41z"/>
<path d="M751 906 c-67 -37 -65 -143 4 -174 20 -9 397 -12 1581 -12 1326 0
1559 2 1583 14 66 35 66 137 0 172 -40 20 -3131 21 -3168 0z"/>
<path d="M4271 906 c-87 -48 -50 -186 49 -186 51 0 100 49 100 99 0 75 -83
124 -149 87z"/>
<path d="M51 586 c-47 -26 -50 -46 -51 -284 0 -243 5 -267 55 -290 40 -18 457
-17 494 2 47 25 51 49 51 286 0 237 -4 261 -51 286 -39 20 -462 20 -498 0z
m349 -286 l0 -100 -100 0 -100 0 0 100 0 100 100 0 100 0 0 -100z"/>
<path d="M4571 586 c-47 -26 -50 -46 -51 -284 0 -243 5 -267 55 -290 40 -18
457 -17 494 2 47 25 51 49 51 286 0 237 -4 261 -51 286 -39 20 -462 20 -498 0z
m349 -286 l0 -100 -100 0 -100 0 0 100 0 100 100 0 100 0 0 -100z"/>
<path d="M911 386 c-67 -37 -65 -143 4 -174 35 -16 255 -16 290 0 29 13 55 55
55 88 0 33 -26 75 -55 88 -37 17 -263 15 -294 -2z"/>
<path d="M1511 386 c-67 -37 -65 -143 4 -174 35 -16 255 -16 290 0 29 13 55
55 55 88 0 33 -26 75 -55 88 -37 17 -263 15 -294 -2z"/>
<path d="M2111 386 c-67 -37 -65 -143 4 -174 35 -16 255 -16 290 0 29 13 55
55 55 88 0 33 -26 75 -55 88 -37 17 -263 15 -294 -2z"/>
<path d="M2711 386 c-67 -37 -65 -143 4 -174 35 -16 255 -16 290 0 29 13 55
55 55 88 0 33 -26 75 -55 88 -37 17 -263 15 -294 -2z"/>
<path d="M3311 386 c-67 -37 -65 -143 4 -174 35 -16 255 -16 290 0 29 13 55
55 55 88 0 33 -26 75 -55 88 -37 17 -263 15 -294 -2z"/>
<path d="M3911 386 c-67 -37 -65 -143 4 -174 35 -16 255 -16 290 0 29 13 55
55 55 88 0 33 -26 75 -55 88 -37 17 -263 15 -294 -2z"/>
</g>
</svg>
